#N canvas 0 32 1366 665 10;
#X obj 114 36 adc~;
#X obj 114 138 sigmund~ env notes pitch, f 25;
#X obj 217 571 noteout;
#X obj 86 238 -;
#X obj 136 271 > 0;
#X obj 112 301 *;
#X obj 76 326 == 0;
#X obj 182 357 spigot;
#X obj 87 273 <= 1;
#X obj 33 406 pack 0 123 0;
#X obj 33 440 ctlout;
#X obj 58 368 spigot;
#X obj 281 519 pack f 0;
#X obj 138 520 pack f 100;
#X obj 172 397 t f b;
#X obj 113 187 int;
#X obj 295 157 float;
#X obj 295 232 + 0.5;
#X obj 295 265 int;
#X obj 294 300 / 10;
#X obj 170 442 int;
#X obj 274 434 int 0;
#X obj 295 200 * 10;
#X obj 47 204 pipe 200;
#X connect 0 0 1 0;
#X connect 1 0 15 0;
#X connect 1 1 16 0;
#X connect 3 0 8 0;
#X connect 4 0 5 1;
#X connect 5 0 7 1;
#X connect 5 0 6 0;
#X connect 6 0 11 1;
#X connect 6 0 11 0;
#X connect 7 0 14 0;
#X connect 7 0 21 1;
#X connect 8 0 5 0;
#X connect 9 0 10 0;
#X connect 11 0 9 0;
#X connect 12 0 2 0;
#X connect 13 0 2 0;
#X connect 14 0 20 0;
#X connect 14 1 21 0;
#X connect 15 0 3 1;
#X connect 15 0 4 0;
#X connect 15 0 23 0;
#X connect 16 0 22 0;
#X connect 17 0 18 0;
#X connect 18 0 19 0;
#X connect 19 0 7 0;
#X connect 20 0 13 0;
#X connect 21 0 12 0;
#X connect 21 0 20 1;
#X connect 22 0 17 0;
#X connect 23 0 3 0;
