#N canvas -14 20 1366 665 10;
#X obj 248 40 adc~;
#X obj 248 142 sigmund~ env notes pitch, f 25;
#X obj 268 92 dac~;
#X obj 322 393 spigot;
#X obj 209 236 -;
#X obj 276 268 > 0;
#X obj 248 297 *;
#X obj 168 371 == 0;
#X obj 224 267 <= 1;
#X obj 135 459 pack 0 123 0;
#X obj 132 529 ctlout;
#X obj 160 421 spigot;
#X obj 247 191 int;
#X obj 325 440 t f b;
#X obj 430 196 float;
#X obj 426 258 * 10;
#X obj 426 290 + 0.5;
#X obj 426 323 int;
#X obj 425 358 / 10;
#X obj 337 569 noteout;
#X obj 397 520 pack f 0;
#X obj 268 524 pack f 100;
#X obj 298 479 int;
#X obj 399 477 int 0;
#X obj 431 158 line;
#X floatatom 482 142 5 0 0 0 - - - 0;
#X obj 181 208 pipe 200;
#X connect 0 0 1 0;
#X connect 1 0 12 0;
#X connect 1 2 24 0;
#X connect 3 0 13 0;
#X connect 3 0 23 1;
#X connect 4 0 8 0;
#X connect 5 0 6 1;
#X connect 6 0 7 0;
#X connect 6 0 3 1;
#X connect 7 0 11 1;
#X connect 7 0 11 0;
#X connect 8 0 6 0;
#X connect 9 0 10 0;
#X connect 11 0 9 0;
#X connect 12 0 4 1;
#X connect 12 0 5 0;
#X connect 12 0 26 0;
#X connect 13 0 22 0;
#X connect 13 1 23 0;
#X connect 14 0 15 0;
#X connect 15 0 16 0;
#X connect 16 0 17 0;
#X connect 17 0 18 0;
#X connect 18 0 3 0;
#X connect 20 0 19 0;
#X connect 21 0 19 0;
#X connect 22 0 21 0;
#X connect 23 0 20 0;
#X connect 23 0 22 1;
#X connect 24 0 14 0;
#X connect 25 0 24 2;
#X connect 26 0 4 0;
