#N canvas -14 20 1366 665 10;
#X obj 248 40 adc~;
#X obj 248 142 sigmund~ env notes pitch, f 25;
#X obj 268 92 dac~;
#X floatatom 828 188 5 0 0 0 - - - 0;
#X floatatom 291 208 5 0 0 0 - - - 0;
#X obj 860 371 spigot;
#X obj 700 389 -;
#X obj 700 428 abs;
#X floatatom 724 447 5 0 0 0 - - - 0;
#X floatatom 148 224 5 0 0 0 - - - 0;
#X obj 233 268 -;
#X floatatom 191 285 5 0 0 0 - - - 0;
#X floatatom 190 338 5 0 0 0 - - - 0;
#X obj 276 268 > 0;
#X obj 267 350 *;
#X floatatom 235 385 5 0 0 0 - - - 0;
#X floatatom 135 390 5 0 0 0 - - - 0;
#X obj 168 371 == 0;
#X obj 497 370 spigot;
#X obj 230 322 <= 1;
#X obj 135 459 pack 0 123 0;
#X obj 132 529 ctlout;
#X obj 160 421 spigot;
#X obj 574 561 pack f 0;
#X obj 431 562 pack f 100;
#X obj 493 440 t f b;
#X floatatom 434 505 5 0 0 0 - - - 0;
#X floatatom 599 493 5 0 0 0 - - - 0;
#X obj 247 191 int;
#X floatatom 302 287 5 0 0 0 - - - 0;
#X obj 853 442 t f b;
#X obj 864 150 float;
#X obj 860 212 * 10;
#X obj 860 244 + 0.5;
#X obj 860 277 int;
#X obj 859 312 / 10;
#X floatatom 827 327 5 0 0 0 - - - 0;
#X floatatom 466 189 5 0 0 0 - - - 0;
#X obj 498 170 float;
#X obj 498 245 + 0.5;
#X obj 498 278 int;
#X obj 497 313 / 10;
#X floatatom 465 328 5 0 0 0 - - - 0;
#X obj 463 484 int;
#X obj 567 476 int 0;
#X floatatom 727 405 5 0 0 0 - - - 0;
#X obj 636 628 noteout;
#X obj 906 591 pack f 0;
#X obj 763 592 pack f 100;
#X floatatom 766 535 5 0 0 0 - - - 0;
#X floatatom 924 525 5 0 0 0 - - - 0;
#X obj 795 514 int;
#X obj 899 506 int 0;
#X obj 865 112 line;
#X obj 498 213 * 10;
#X floatatom 901 72 5 0 0 0 - - - 0;
#X obj 181 208 pipe 200;
#X connect 0 0 1 0;
#X connect 1 0 28 0;
#X connect 1 1 38 0;
#X connect 1 2 53 0;
#X connect 5 0 6 1;
#X connect 5 0 30 0;
#X connect 5 0 52 1;
#X connect 6 0 7 0;
#X connect 6 0 45 0;
#X connect 7 0 8 0;
#X connect 10 0 11 0;
#X connect 10 0 19 0;
#X connect 13 0 14 1;
#X connect 13 0 29 0;
#X connect 14 0 18 1;
#X connect 14 0 15 0;
#X connect 14 0 17 0;
#X connect 14 0 5 1;
#X connect 17 0 16 0;
#X connect 17 0 22 1;
#X connect 17 0 22 0;
#X connect 18 0 6 0;
#X connect 18 0 25 0;
#X connect 18 0 44 1;
#X connect 19 0 12 0;
#X connect 19 0 14 0;
#X connect 20 0 21 0;
#X connect 22 0 20 0;
#X connect 25 0 43 0;
#X connect 25 1 44 0;
#X connect 28 0 10 1;
#X connect 28 0 4 0;
#X connect 28 0 13 0;
#X connect 28 0 56 0;
#X connect 30 0 51 0;
#X connect 30 1 52 0;
#X connect 31 0 3 0;
#X connect 31 0 32 0;
#X connect 32 0 33 0;
#X connect 33 0 34 0;
#X connect 34 0 35 0;
#X connect 35 0 5 0;
#X connect 35 0 36 0;
#X connect 38 0 37 0;
#X connect 38 0 54 0;
#X connect 39 0 40 0;
#X connect 40 0 41 0;
#X connect 41 0 42 0;
#X connect 41 0 18 0;
#X connect 43 0 26 0;
#X connect 43 0 24 0;
#X connect 44 0 27 0;
#X connect 44 0 23 0;
#X connect 44 0 43 1;
#X connect 47 0 46 0;
#X connect 48 0 46 0;
#X connect 51 0 49 0;
#X connect 51 0 48 0;
#X connect 52 0 50 0;
#X connect 52 0 47 0;
#X connect 52 0 51 1;
#X connect 53 0 31 0;
#X connect 54 0 39 0;
#X connect 55 0 53 2;
#X connect 56 0 9 0;
#X connect 56 0 10 0;
